# xmcd
#
# Track frame offsets: 
#        150
#        21942
#        44074
#        65930
#        92365
#        112407
#        133023
#        156298
#        175798
#        196564
#        214779
#        240216
#        259582
#
# Disc length: 3746 seconds
#
# Revision: 0
# Processed by: cddbd v1.5.2PL0 Copyright (c) Steve Scherf et al.
# Submitted via: ExactAudioCopyFreeDBPlugin 1.0
#
DISCID=b50ea00d
DTITLE=群星 - 聆听女人往事Cd1
DYEAR=2014
DGENRE=Acid
TTITLE0=孙露 - 01 把悲伤留给自己
TTITLE1=谭艳 - 02 我是一只小小鸟
TTITLE2=张玮伽 - 03 让我一次爱个够
TTITLE3=陈影 - 04 漂洋过海来看你
TTITLE4=孙露 - 05 突然的自我
TTITLE5=张玮伽 - 06 值得
TTITLE6=韦嘉 - 07 黄昏
TTITLE7=杨蔓 - 08 容易受伤的女人
TTITLE8=雷婷 - 09 最浪漫的事
TTITLE9=童丽 - 10 我只在乎你
TTITLE10=龚玥 - 11 谁的眼泪在飞
TTITLE11=曹芙嘉 - 12 相见恨晚
TTITLE12=谭艳 - 13 不让我的眼泪陪我过夜
EXTD=
EXTT0=
EXTT1=
EXTT2=
EXTT3=
EXTT4=
EXTT5=
EXTT6=
EXTT7=
EXTT8=
EXTT9=
EXTT10=
EXTT11=
EXTT12=
PLAYORDER=
